<?xml version="1.0" standalone="no"?>
<!DOCTYPE svg PUBLIC "-//W3C//DTD SVG 20010904//EN"
 "http://www.w3.org/TR/2001/REC-SVG-20010904/DTD/svg10.dtd">
<svg version="1.0" xmlns="http://www.w3.org/2000/svg"
 width="30.000000pt" height="30.000000pt" viewBox="0 0 30.000000 30.000000"
 preserveAspectRatio="xMidYMid meet">

<g transform="translate(0.000000,30.000000) scale(0.100000,-0.100000)"
fill="#000000" stroke="none">
<path d="M122 262 c-7 -12 -10 -28 -6 -34 4 -6 3 -8 -3 -5 -6 4 -15 -4 -21
-17 -9 -20 -8 -25 5 -30 21 -9 31 3 13 14 -12 8 -11 10 5 10 15 0 21 -7 23
-25 3 -35 -38 -56 -65 -33 -20 16 -17 -37 3 -56 20 -21 23 -20 34 7 6 16 9 17
9 5 1 -9 -8 -23 -18 -30 -28 -19 -12 -38 36 -45 68 -9 99 26 68 76 -6 11 -3
13 13 9 17 -5 22 -2 22 14 0 15 -5 18 -19 13 -15 -4 -20 -1 -20 12 -2 61 -8
97 -19 101 -7 2 -10 8 -6 13 3 5 1 9 -4 9 -5 0 -13 -10 -17 -22 -7 -22 -8 -21
-14 7 -7 30 -7 30 -19 7z m-22 -158 c0 -8 -19 -13 -24 -6 -3 5 1 9 9 9 8 0 15
-2 15 -3z"/>
<path d="M219 203 c0 -5 -2 -16 -4 -25 -2 -9 3 -19 9 -21 7 -3 13 0 13 6 0 7
4 20 8 30 5 12 2 17 -9 17 -9 0 -16 -3 -17 -7z"/>
</g>
</svg>
